<mxfile host="app.diagrams.net" modified="2022-05-27T06:57:09.900Z" agent="5.0 (Windows NT 10.0; Win64; x64) AppleWebKit/537.36 (KHTML, like Gecko) Chrome/102.0.0.0 Safari/537.36" etag="faLshCj_O161EPJ_DeSk" version="18.1.3" type="github">
  <diagram id="C5RBs43oDa-KdzZeNtuy" name="Page-1">
    <mxGraphModel dx="2370" dy="1287" grid="1" gridSize="10" guides="1" tooltips="1" connect="1" arrows="1" fold="1" page="1" pageScale="1" pageWidth="827" pageHeight="1169" math="0" shadow="0">
      <root>
        <mxCell id="WIyWlLk6GJQsqaUBKTNV-0" />
        <mxCell id="WIyWlLk6GJQsqaUBKTNV-1" parent="WIyWlLk6GJQsqaUBKTNV-0" />
        <mxCell id="I72ObrQ_RLQi7YqDiPYS-1" style="edgeStyle=orthogonalEdgeStyle;rounded=0;orthogonalLoop=1;jettySize=auto;html=1;exitX=0.5;exitY=1;exitDx=0;exitDy=0;entryX=0.5;entryY=0;entryDx=0;entryDy=0;" edge="1" parent="WIyWlLk6GJQsqaUBKTNV-1" source="I72ObrQ_RLQi7YqDiPYS-0" target="I72ObrQ_RLQi7YqDiPYS-2">
          <mxGeometry relative="1" as="geometry">
            <mxPoint x="414" y="220" as="targetPoint" />
          </mxGeometry>
        </mxCell>
        <mxCell id="I72ObrQ_RLQi7YqDiPYS-0" value="start" style="ellipse;whiteSpace=wrap;html=1;aspect=fixed;" vertex="1" parent="WIyWlLk6GJQsqaUBKTNV-1">
          <mxGeometry x="374" y="50" width="80" height="80" as="geometry" />
        </mxCell>
        <mxCell id="I72ObrQ_RLQi7YqDiPYS-5" style="edgeStyle=orthogonalEdgeStyle;rounded=0;orthogonalLoop=1;jettySize=auto;html=1;exitX=0.5;exitY=1;exitDx=0;exitDy=0;entryX=0.5;entryY=0;entryDx=0;entryDy=0;" edge="1" parent="WIyWlLk6GJQsqaUBKTNV-1" source="I72ObrQ_RLQi7YqDiPYS-2" target="I72ObrQ_RLQi7YqDiPYS-4">
          <mxGeometry relative="1" as="geometry" />
        </mxCell>
        <mxCell id="I72ObrQ_RLQi7YqDiPYS-2" value="Declarations&lt;br&gt;&lt;div style=&quot;&quot;&gt;&lt;span style=&quot;background-color: initial; white-space: pre;&quot;&gt;	&lt;/span&gt;&lt;span style=&quot;background-color: initial;&quot;&gt;num valueOne, valueTwo, result&lt;/span&gt;&lt;/div&gt;" style="rounded=0;whiteSpace=wrap;html=1;align=left;" vertex="1" parent="WIyWlLk6GJQsqaUBKTNV-1">
          <mxGeometry x="309" y="170" width="210" height="60" as="geometry" />
        </mxCell>
        <mxCell id="I72ObrQ_RLQi7YqDiPYS-7" style="edgeStyle=orthogonalEdgeStyle;rounded=0;orthogonalLoop=1;jettySize=auto;html=1;exitX=0.5;exitY=1;exitDx=0;exitDy=0;entryX=0.5;entryY=0;entryDx=0;entryDy=0;" edge="1" parent="WIyWlLk6GJQsqaUBKTNV-1" source="I72ObrQ_RLQi7YqDiPYS-4" target="I72ObrQ_RLQi7YqDiPYS-6">
          <mxGeometry relative="1" as="geometry" />
        </mxCell>
        <mxCell id="I72ObrQ_RLQi7YqDiPYS-4" value="output &quot;Please enter the first value" style="shape=parallelogram;perimeter=parallelogramPerimeter;whiteSpace=wrap;html=1;fixedSize=1;" vertex="1" parent="WIyWlLk6GJQsqaUBKTNV-1">
          <mxGeometry x="304" y="270" width="220" height="60" as="geometry" />
        </mxCell>
        <mxCell id="I72ObrQ_RLQi7YqDiPYS-6" value="input valueOne" style="shape=parallelogram;perimeter=parallelogramPerimeter;whiteSpace=wrap;html=1;fixedSize=1;" vertex="1" parent="WIyWlLk6GJQsqaUBKTNV-1">
          <mxGeometry x="304" y="370" width="220" height="60" as="geometry" />
        </mxCell>
        <mxCell id="I72ObrQ_RLQi7YqDiPYS-8" style="edgeStyle=orthogonalEdgeStyle;rounded=0;orthogonalLoop=1;jettySize=auto;html=1;exitX=0.5;exitY=1;exitDx=0;exitDy=0;entryX=0.5;entryY=0;entryDx=0;entryDy=0;" edge="1" parent="WIyWlLk6GJQsqaUBKTNV-1" target="I72ObrQ_RLQi7YqDiPYS-10" source="I72ObrQ_RLQi7YqDiPYS-6">
          <mxGeometry relative="1" as="geometry">
            <mxPoint x="414" y="430" as="sourcePoint" />
          </mxGeometry>
        </mxCell>
        <mxCell id="I72ObrQ_RLQi7YqDiPYS-9" style="edgeStyle=orthogonalEdgeStyle;rounded=0;orthogonalLoop=1;jettySize=auto;html=1;exitX=0.5;exitY=1;exitDx=0;exitDy=0;entryX=0.5;entryY=0;entryDx=0;entryDy=0;" edge="1" parent="WIyWlLk6GJQsqaUBKTNV-1" source="I72ObrQ_RLQi7YqDiPYS-10" target="I72ObrQ_RLQi7YqDiPYS-11">
          <mxGeometry relative="1" as="geometry" />
        </mxCell>
        <mxCell id="I72ObrQ_RLQi7YqDiPYS-10" value="output &quot;Please enter the second value" style="shape=parallelogram;perimeter=parallelogramPerimeter;whiteSpace=wrap;html=1;fixedSize=1;" vertex="1" parent="WIyWlLk6GJQsqaUBKTNV-1">
          <mxGeometry x="296" y="470" width="236" height="60" as="geometry" />
        </mxCell>
        <mxCell id="I72ObrQ_RLQi7YqDiPYS-13" style="edgeStyle=orthogonalEdgeStyle;rounded=0;orthogonalLoop=1;jettySize=auto;html=1;exitX=0.5;exitY=1;exitDx=0;exitDy=0;" edge="1" parent="WIyWlLk6GJQsqaUBKTNV-1" source="I72ObrQ_RLQi7YqDiPYS-11" target="I72ObrQ_RLQi7YqDiPYS-12">
          <mxGeometry relative="1" as="geometry" />
        </mxCell>
        <mxCell id="I72ObrQ_RLQi7YqDiPYS-11" value="input valueTwo" style="shape=parallelogram;perimeter=parallelogramPerimeter;whiteSpace=wrap;html=1;fixedSize=1;" vertex="1" parent="WIyWlLk6GJQsqaUBKTNV-1">
          <mxGeometry x="304" y="570" width="220" height="60" as="geometry" />
        </mxCell>
        <mxCell id="I72ObrQ_RLQi7YqDiPYS-15" style="edgeStyle=orthogonalEdgeStyle;rounded=0;orthogonalLoop=1;jettySize=auto;html=1;exitX=0.5;exitY=1;exitDx=0;exitDy=0;entryX=0.5;entryY=0;entryDx=0;entryDy=0;" edge="1" parent="WIyWlLk6GJQsqaUBKTNV-1" source="I72ObrQ_RLQi7YqDiPYS-12" target="I72ObrQ_RLQi7YqDiPYS-14">
          <mxGeometry relative="1" as="geometry" />
        </mxCell>
        <mxCell id="I72ObrQ_RLQi7YqDiPYS-12" value="set result = (valueOne + valueTwo) * 2" style="rounded=0;whiteSpace=wrap;html=1;" vertex="1" parent="WIyWlLk6GJQsqaUBKTNV-1">
          <mxGeometry x="306" y="670" width="216" height="60" as="geometry" />
        </mxCell>
        <mxCell id="I72ObrQ_RLQi7YqDiPYS-17" style="edgeStyle=orthogonalEdgeStyle;rounded=0;orthogonalLoop=1;jettySize=auto;html=1;exitX=0.5;exitY=1;exitDx=0;exitDy=0;" edge="1" parent="WIyWlLk6GJQsqaUBKTNV-1" source="I72ObrQ_RLQi7YqDiPYS-14" target="I72ObrQ_RLQi7YqDiPYS-16">
          <mxGeometry relative="1" as="geometry" />
        </mxCell>
        <mxCell id="I72ObrQ_RLQi7YqDiPYS-14" value="output &quot;The result of the calculation is&quot;, result" style="shape=parallelogram;perimeter=parallelogramPerimeter;whiteSpace=wrap;html=1;fixedSize=1;" vertex="1" parent="WIyWlLk6GJQsqaUBKTNV-1">
          <mxGeometry x="277" y="770" width="274" height="60" as="geometry" />
        </mxCell>
        <mxCell id="I72ObrQ_RLQi7YqDiPYS-16" value="stop" style="ellipse;whiteSpace=wrap;html=1;aspect=fixed;" vertex="1" parent="WIyWlLk6GJQsqaUBKTNV-1">
          <mxGeometry x="374" y="870" width="80" height="80" as="geometry" />
        </mxCell>
      </root>
    </mxGraphModel>
  </diagram>
</mxfile>
